<svg xmlns="http://www.w3.org/2000/svg" height="800" width="1200" viewBox="-8.7611835 -1.93189 75.930257 11.59134"><path d="M20.30095 1.26612c.34678 0 .63218-.28293.63218-.63288 0-.34749-.2854-.63324-.63218-.63324-.34854 0-.6343.28575-.6343.63324 0 .34995.28576.63288.6343.63288m-.5394-.63288c0-.29669.24236-.53869.5394-.53869.29528 0 .53763.242.53763.5387 0 .29667-.24235.53903-.53763.53903-.29704 0-.5394-.24236-.5394-.53904m.29916.3182h.121V.68192h.14252l.10513.26952h.13476L20.4403.66358c.04339-.0219.1157-.0466.1157-.16475 0-.19368-.14569-.2159-.27198-.2159h-.22331zm.121-.5528h.13512c.07267 0 .11253.0296.11253.09 0 .0586-.0455.0857-.10195.0857h-.1457zM0 .91722V.1618h.74895v5.4683l.00035.0173v.73837H0v-.75613zm7.61506 3.20252c.01976 1.131.72425 2.03553 1.57445 2.02.84914-.0148 1.52224-.94438 1.50248-2.07539-.01834-1.131-.7232-2.03552-1.57304-2.02036-.84913.0148-1.52259.9444-1.50389 2.07575m6.20148-1.36737c.0187.042-.0268-.0649-.0268-.0649zm.51082 4.68277c.03422-.0582.08184-.14746.13865-.25929zm.04445-5.07329l.03.0787.25188.61665zm-3.13901 3.1055c.46355.42051.87983.63853 1.41252.63853.5454.003 1.03082-.26317 1.03082-.7761 0-.42829-.37994-.67982-1.05869-.96627-.57503-.2487-1.00365-.42369-1.22731-.78387a2.84022 2.84022 0 01.04163.48436c0 1.38853-1.00824 2.51531-2.25214 2.51531-1.24319 0-2.25107-1.12678-2.25107-2.5153 0-.8375.36653-1.5794.92957-2.03695h-1.5233V6.3864h-.67768v-.7165l.0014-.0392V2.02704H5.062v-.45367h.60466C5.74533.65828 6.31224.14075 7.09718.14075c.50976 0 .78916.0533.95003.1277V.889c-.0021.0466-.0021.0744-.0021.0744L8.02077.9627C7.77664.7362 7.53428.56791 6.96984.56932c-.44909 0-.74718.36442-.64276 1.00401h2.53294a2.0007 2.0007 0 01.31962-.0254c.90311 0 1.68063.59267 2.04047 1.44921a2.03457 2.03457 0 01-.0053-.14887c0-.89324.86465-1.27318 1.76389-1.27106.0335-.00035.06738 0 .10054.00071.31644-.005.76729.0984 1.0421.17003l.25047.61384.28187.69532.76306 1.85844.0896.29845.09948-.29845.96344-2.38478c.1778-.65687.88194-.94086 1.65946-.9391.38594-.002.6717.0445 1.01389.16546v.72037c-.42157-.3055-.72284-.484-1.20121-.484-.42051 0-.92604.18625-.92604.80432-.0081.46496.27128.54963 1.09008.95568.67169.2921 1.29258.61348 1.29681 1.36031 0 1.24424-1.2266 1.45944-1.82386 1.46191-.53305 0-1.022-.13194-1.29293-.35737V5.3964l.0441.036c.48366.45367.91228.68721 1.4665.68721.54575.004 1.03046-.26282 1.03046-.77576 0-.42863-.3803-.67875-1.05868-.96555-.64947-.28082-1.07492-.46673-1.24919-.9324-.26423.6456-1.49437 3.64138-1.784 4.28167h-.66428l.15699-.29246.13864-.25929.0046-.01c.16686-.32703.40887-.84032.62371-1.33244l-1.27776-3.08152c-.0088-.0194-.02893-.067-.07232-.16439-.09772-.2226-.18944-.42898-.46531-.53305-.14711-.0497-.3041-.0748-.48825-.0748-.4198 0-.95779.18521-.95779.80398-.0078.46461.30374.54892 1.12183.95497.67275.29175 1.29329.6142 1.29682 1.35996 0 1.2446-1.22697 1.46015-1.82316 1.46191-.47449 0-.91299-.10372-1.19556-.28575zM2.1463 1.62031l.0085.54433v.0363h.0063l.03175-.0561c.27517-.29528.6216-.58843 1.44604-.58843.78916 0 1.29998.67027 1.32044 1.0915l.00036 2.98273v.7557H4.2834V2.95732c0-.52564-.46178-.90558-1.02658-.90558-.4699 0-1.0721.42262-1.09255.84984v3.48583H1.488l.00035-.756-.00035-3.3842.00035-.62688h.49001z" fill="#2d7bc8"/><path d="M27.72056 6.21497c-.1778.0917-.57115.18415-1.06821.18415-1.31445 0-2.11314-.82303-2.11314-2.08174 0-1.36349.9458-2.18652 2.2112-2.18652.49742 0 .85338.10442 1.00719.18415l-.1658.6022c-.1965-.0861-.46673-.1598-.8107-.1598-.84101 0-1.4492.5281-1.4492 1.52293 0 .90911.5341 1.49225 1.44286 1.49225.30727 0 .62653-.0614.82303-.15346zm1.11159-1.92829c0 .84102.42369 1.51095 1.1483 1.51095.73095 0 1.14229-.67593 1.14229-1.54199 0-.78-.38665-1.5166-1.1423-1.5166-.74895 0-1.14829.69392-1.14829 1.54764m3.08928-.0614c0 1.38782-.84173 2.17981-1.98403 2.17981-1.16628 0-1.90359-.8904-1.90359-2.10644 0-1.27105.79834-2.1678 1.96533-2.1678 1.20967 0 1.92229.91544 1.92229 2.09443m.53397 2.11243V2.19857h.85973l1.06856 1.77482c.27623.46038.51611.93945.70626 1.38783h.01235c-.04904-.5528-.06773-1.0869-.06773-1.71944v-1.4432h.70027V6.3377h-.77964l-1.08127-1.81786c-.26352-.45438-.5401-.96415-.7426-1.43087l-.0187.006c.0307.53411.0367 1.08056.0367 1.76248v1.4799zm4.01646-.82294c.24553.14111.61383.26423 1.00118.26423.48507 0 .7553-.22719.7553-.56515 0-.31327-.2092-.49742-.7373-.68756-.68157-.24589-1.1176-.60819-1.1176-1.20368 0-.67592.56515-1.19168 1.4619-1.19168.44804 0 .77965.0984.99484.20884l-.18415.60784c-.14781-.0797-.43603-.1965-.82338-.1965-.47837 0-.68757.25823-.68757.49777 0 .31926.23919.46672.79199.68121.71896.27023 1.06892.6329 1.06892 1.22837 0 .66358-.50377 1.24072-1.57233 1.24072-.43604 0-.89077-.12276-1.1176-.25788zm3.83789-3.31636v2.41371c0 .81033.3383 1.18533.84737 1.18533.5468 0 .87242-.375.87242-1.18533v-2.4137h.7553v2.36466c0 1.27741-.65723 1.8422-1.65206 1.8422-.95814 0-1.57833-.53445-1.57833-1.8362V2.19841zm3.22424 0h.75565v3.50696h1.70074v.63218h-2.4564zm3.7029.63283H46.0579v-.63288h3.12596v.63288h-1.19133v3.50661h-.75565zm3.07097 3.50632h-.756V2.19842h.756zm.74904.00015V2.19857h.86008l1.0682 1.77482c.27624.46038.51613.93945.70627 1.38783h.0123c-.049-.5528-.0677-1.0869-.0677-1.71944v-1.4432h.70026V6.3377h-.77964L52.4754 4.51985c-.26353-.45438-.5401-.96415-.7426-1.43087l-.0187.006c.0307.53411.0367 1.08056.0367 1.76248v1.4799zm7.35099-.19045c-.26388.0981-.78.23354-1.33244.23354-.69991 0-1.22837-.17815-1.62137-.5528-.3683-.34996-.58314-.89676-.5775-1.52295 0-1.3081.9338-2.14947 2.30294-2.14947.5101 0 .90946.10442 1.09925.1965l-.16545.60783c-.22754-.0981-.50377-.1778-.9398-.1778-.88406 0-1.50424.52211-1.50424 1.48626 0 .93944.57714 1.49824 1.43686 1.49824.27023 0 .47272-.037.57115-.0857V4.64903h-.73061V4.0532h1.4612zM22.56055.08634V6.5757h.242V.08634" fill="#656263"/></svg>