<svg xmlns="http://www.w3.org/2000/svg" height="800" width="1200" viewBox="-43.5009 -25 377.0078 150"><defs><linearGradient gradientUnits="userSpaceOnUse" gradientTransform="matrix(0 -164.3 -164.3 0 636.24 170.92)" x2="1" id="a"><stop offset="0" stop-color="#ffe500"/><stop offset="1" stop-color="#fcb822"/></linearGradient><linearGradient gradientUnits="userSpaceOnUse" gradientTransform="scale(206.5933 -206.5933) rotate(38.767 1.976 2.243)" x2="1" id="b"><stop offset="0" stop-color="#168ccc"/><stop offset="1" stop-color="#00649e"/></linearGradient><linearGradient gradientUnits="userSpaceOnUse" gradientTransform="matrix(0 -143.94 -143.94 0 287.19 149.02)" x2="1" id="d"><stop offset="0" stop-color="#25a149"/><stop offset="1" stop-color="#008a52"/></linearGradient><linearGradient gradientUnits="userSpaceOnUse" gradientTransform="matrix(24.754 -149.44 -149.44 -24.754 78.386 163.11)" x2="1" id="e"><stop offset="0" stop-color="#d92231"/><stop offset="1" stop-color="#ba2234"/></linearGradient><clipPath id="c"><path d="M248.83 206.33l139.83-63.093L325.566.007l-139.83 63.089 63.094 143.24"/></clipPath></defs><path fill="#e79224" d="M290.006 21.355v68.786l-9.498 9.267V32.142l9.498-10.787"/><path fill="url(#a)" d="M716.52 173.3H555.95V1.36h160.57z" transform="matrix(.3917 0 0 -.3917 .001 100.024)"/><path fill="#fef26f" d="M227.616 21.402l-9.851 10.742h62.894l9.345-10.787-62.39.045"/><path fill="#91c9ed" d="M149.72 24.352l61.866-8.6-5.176 14.834-58.61 9.295.25-10.604 1.67-4.925"/><path fill="url(#b)" d="M526.96 177.28l21.881-154.04-155.74-21.883-21.03 148.92 9.094 7.106 145.8 19.893" transform="matrix(.3917 0 0 -.3917 .001 100.024)"/><path fill="#0b9ad6" d="M211.588 15.75l.048.364 8.023 61.783-4.677 13.024-8.57-60.337"/><g clip-path="url(#c)" transform="matrix(.3917 0 0 -.3917 .001 100.024)"><path fill="url(#d)" d="M0 255.36h740.38V.06H0z"/></g><path fill="#98d0a0" d="M91.78 0l5.685 19.204 54.77 24.713-4.604-18.35L91.78 0"/><path fill="#68bf6b" d="M91.78 0L69.735 52.319l3.016 22.991 24.714-56.106L91.78 0"/><path fill="url(#e)" d="M156.3 177.5l23.047-151.58L24.817 1.69-.003 153.56l156.3 23.932" transform="matrix(.3917 0 0 -.3917 .001 100.024)"/><path fill="#ef463d" d="M.001 39.87l4.25-21.197 61.116-9.797-4.142 21.62L.001 39.872"/><path fill="#761116" d="M65.368 8.876l8.96 59.946-4.075 21.046-9.028-59.372 4.143-21.62"/><path fill="#fff" d="M196.034 42.147c-.276-1.874-.916-3.304-1.953-4.24-.824-.749-1.862-1.127-3.044-1.125a6.47 6.47 0 00-.934.072c-1.584.227-2.797.96-3.54 2.172-.541.875-.803 1.93-.803 3.145 0 .465.038.955.114 1.469l2.225 15.7-17.54 2.58-2.225-15.702c-.269-1.825-.9-3.24-1.923-4.203-.826-.78-1.856-1.178-3.018-1.176-.274 0-.556.022-.843.065-1.651.237-2.909.957-3.672 2.15-.554.86-.821 1.92-.821 3.154 0 .474.04.974.116 1.502l6.002 40.83c.275 1.878.932 3.305 2.011 4.227.842.72 1.897 1.082 3.106 1.08.33 0 .674-.026 1.028-.078 1.51-.219 2.677-.95 3.38-2.159.504-.86.75-1.893.75-3.075 0-.473-.04-.969-.116-1.488l-2.452-16.132 17.54-2.578 2.453 16.132c.27 1.852.92 3.27 1.984 4.205.846.743 1.89 1.117 3.075 1.115.305 0 .616-.023.938-.07 1.578-.23 2.786-.952 3.508-2.154.52-.857.77-1.896.77-3.094 0-.474-.038-.972-.114-1.496zM124.698 64.73c-2.064 4.86-4.788 8.196-8.16 10.043-1.806.99-3.657 1.48-5.572 1.48-1.664 0-3.379-.371-5.15-1.121-3.833-1.634-6.221-4.26-7.255-7.965a14.574 14.574 0 01-.52-3.922c0-2.719.683-5.701 2.06-8.947 2.11-4.976 4.865-8.37 8.238-10.23 1.802-.993 3.655-1.486 5.576-1.486 1.682 0 3.42.377 5.221 1.14 3.809 1.621 6.173 4.254 7.188 7.975a14.63 14.63 0 01.496 3.845c0 2.776-.702 5.84-2.122 9.188zm6-24.44c-2.152-2.27-4.766-4.054-7.831-5.354-3.043-1.293-6.12-1.938-9.22-1.938l-.143.001c-3.148.02-6.259.721-9.326 2.097v-.001c-3.21 1.397-6.007 3.352-8.38 5.863-2.374 2.509-4.307 5.527-5.8 9.043-1.471 3.475-2.288 6.952-2.44 10.429a26.566 26.566 0 001.552 10.191c1.115 3.1 2.76 5.785 4.929 8.047 2.168 2.263 4.835 4.063 7.99 5.399v-.001c3.019 1.282 6.084 1.924 9.189 1.922h.08c3.13-.014 6.236-.685 9.306-2.004l.003-.001.002-.001a26.586 26.586 0 008.448-5.93c2.4-2.51 4.341-5.52 5.825-9.016 1.483-3.496 2.291-6.976 2.424-10.438a26.242 26.242 0 00-1.632-10.146c-1.165-3.17-2.825-5.893-4.976-8.162zM54.72 80.417c-.477-.57-1.119-.991-1.902-1.265-.805-.281-1.777-.416-2.923-.416-1.08 0-2.313.12-3.705.359l-15.976 2.73c.168-1.231.78-2.85 1.858-4.82 1.204-2.21 2.979-4.863 5.323-7.952l.001-.002 1.845-2.464c.305-.378.73-.934 1.28-1.668 3.655-4.795 5.917-8.698 6.785-11.762.496-1.737.798-3.488.907-5.25.03-.483.044-.963.044-1.438a22.13 22.13 0 00-.313-3.731c-.19-1.116-.465-2.044-.833-2.788-.368-.743-.836-1.309-1.413-1.665-.65-.396-1.566-.564-2.763-.566-.989 0-2.174.12-3.562.356l-18.463 3.16c-2.235.382-3.886 1.04-4.94 2.032-.837.786-1.27 1.803-1.265 2.97 0 .305.028.62.084.947.26 1.569 1.077 2.719 2.396 3.304.777.351 1.718.519 2.815.519.747 0 1.568-.078 2.465-.23l15.453-2.607c.026.273.044.546.044.816a8.29 8.29 0 01-.502 2.837c-.459 1.279-1.605 3.107-3.431 5.431-.518.635-1.31 1.624-2.379 2.963-4.167 5.048-7.152 9.352-8.958 12.932l-.001.004v.001c-1.282 2.464-2.172 4.892-2.66 7.281a20.087 20.087 0 00-.429 4.016c0 .919.074 1.809.222 2.67.211 1.236.516 2.256.927 3.063.411.804.935 1.406 1.582 1.761.603.327 1.488.457 2.707.46 1.546 0 3.629-.228 6.264-.677l16.753-2.865c2.966-.51 5.03-1.218 6.228-2.202.958-.787 1.455-1.868 1.45-3.14 0-.322-.03-.655-.09-1-.14-.827-.447-1.535-.925-2.104zm-14.198-15.5h.001l-.001.002h-.001zm217.611 13.648c-2.41 2.912-5.655 4.358-9.843 4.362-4.218-.004-7.476-1.445-9.9-4.342-2.415-2.9-3.638-6.887-3.64-12.004.002-5.215 1.22-9.26 3.623-12.183 2.409-2.922 5.677-4.372 9.917-4.378 4.188.006 7.432 1.455 9.843 4.378 2.405 2.922 3.625 6.968 3.625 12.183 0 5.093-1.217 9.076-3.625 11.984zm12.927-22.194c-1.245-3.127-3.088-5.93-5.524-8.405-2.332-2.378-4.954-4.172-7.848-5.377-2.897-1.205-6.03-1.807-9.394-1.806-3.387 0-6.55.6-9.47 1.805-2.918 1.205-5.538 3.001-7.848 5.38-2.433 2.449-4.268 5.243-5.486 8.369-1.218 3.13-1.828 6.542-1.828 10.234 0 3.644.611 7.045 1.847 10.195 1.23 3.15 3.056 5.978 5.467 8.475 2.26 2.335 4.853 4.102 7.759 5.294 2.908 1.19 6.098 1.787 9.56 1.787 3.337 0 6.465-.596 9.371-1.787 2.908-1.191 5.535-2.957 7.868-5.291 2.438-2.5 4.28-5.319 5.526-8.46 1.245-3.136 1.868-6.545 1.868-10.213 0-3.669-.623-7.071-1.868-10.2"/></svg>